<svg xmlns="http://www.w3.org/2000/svg" xml:space="preserve"
    style="fill-rule:evenodd;clip-rule:evenodd;stroke-linejoin:round;stroke-miterlimit:2" viewBox="0 0 107 48">
    <path
        d="m102.433 182.653-41.337-26.571 41.437-26.571-.1 53.142Zm-7.927-38.491L75.904 156.09l18.557 11.928.045-23.856Zm20.058-2.219-.026 40.715-8-.005.034-53.142h8.033l9.04 13.712 9.04-13.712h.034v-.005l8 .005-.034 53.142-8-.005.026-40.681-9.059 14.09v.022l-.007-.011-.007.011v-.022l-9.074-14.114Zm64.218 9.384-7.413 4.75-18.589-11.92.063 33.355-7.991 5.136-.099-53.142 34.029 21.821Zm-20.149 12.031 6.726-4.332 12.423 19.29-6.725 4.332-12.424-19.29Z"
        style="fill:#262626" transform="translate(-55.174 -116.953) scale(.90307)" />
</svg>
