<?xml version="1.0" encoding="UTF-8" standalone="no"?>
<!DOCTYPE svg PUBLIC "-//W3C//DTD SVG 1.1//EN" "http://www.w3.org/Graphics/SVG/1.1/DTD/svg11.dtd">
<svg width="100%" height="100%" viewBox="0 0 38 96" version="1.1" xmlns="http://www.w3.org/2000/svg" xmlns:xlink="http://www.w3.org/1999/xlink" xml:space="preserve" xmlns:serif="http://www.serif.com/" style="fill-rule:evenodd;clip-rule:evenodd;stroke-linejoin:round;stroke-miterlimit:2;">
    <g transform="matrix(1,0,0,1,-2.84217e-14,-380)">
        <g id="Artboard1" transform="matrix(0.126109,0,0,0.382309,252.225,234.523)">
            <rect x="-2000.06" y="380.521" width="301.327" height="251.106" style="fill:none;"/>
            <clipPath id="_clip1">
                <rect x="-2000.06" y="380.521" width="301.327" height="251.106"/>
            </clipPath>
            <g clip-path="url(#_clip1)">
                <g id="scroll-icon" transform="matrix(7.92966,0,0,2.61569,-9957.92,-2399.17)">
                    <path d="M1041.33,1078.21L1041.33,1108.52C1041.33,1117.08 1034.38,1124.03 1025.82,1124.03L1019.06,1124.03C1010.5,1124.03 1003.56,1117.08 1003.56,1108.52L1003.56,1078.21C1003.56,1069.65 1010.5,1062.7 1019.06,1062.7L1025.82,1062.7C1034.38,1062.7 1041.33,1069.65 1041.33,1078.21ZM1037.33,1078.21C1037.33,1071.86 1032.17,1066.7 1025.82,1066.7L1019.06,1066.7C1012.71,1066.7 1007.56,1071.86 1007.56,1078.21L1007.56,1108.52C1007.56,1114.87 1012.71,1120.03 1019.06,1120.03L1025.82,1120.03C1032.17,1120.03 1037.33,1114.87 1037.33,1108.52L1037.33,1078.21ZM1026.3,1077.85L1026.3,1092.38C1026.3,1094.52 1024.57,1096.25 1022.44,1096.25C1020.31,1096.25 1018.58,1094.52 1018.58,1092.38L1018.58,1077.85C1018.58,1075.72 1020.31,1073.99 1022.44,1073.99C1024.57,1073.99 1026.3,1075.72 1026.3,1077.85ZM1019.99,1132.13L1024.89,1132.13L1024.89,1143.3L1025.97,1142.21L1029.43,1145.67L1022.44,1152.67L1015.45,1145.67L1018.91,1142.21L1019.99,1143.3L1019.99,1132.13Z" style="fill:rgb(89,89,89);"/>
                </g>
            </g>
        </g>
    </g>
</svg>
