<?xml version="1.0" encoding="UTF-8" standalone="no"?>
<!DOCTYPE svg PUBLIC "-//W3C//DTD SVG 1.1//EN" "http://www.w3.org/Graphics/SVG/1.1/DTD/svg11.dtd">
<svg width="100%" height="100%" viewBox="0 0 107 48" version="1.1" xmlns="http://www.w3.org/2000/svg" xmlns:xlink="http://www.w3.org/1999/xlink" xml:space="preserve" xmlns:serif="http://www.serif.com/" style="fill-rule:evenodd;clip-rule:evenodd;stroke-linejoin:round;stroke-miterlimit:2;">
    <g transform="matrix(1,0,0,1,-69.7037,-42.2362)">
        <g transform="matrix(1,0,0,1,0.297731,4.95993)">
            <g id="logo" transform="matrix(0.90307,0,0,0.90307,14.2324,-79.6764)">
                <path d="M102.433,182.653L61.096,156.082L102.533,129.511L102.433,182.653ZM94.506,144.162C94.506,144.162 75.904,156.09 75.904,156.09C75.904,156.09 94.461,168.018 94.461,168.018L94.506,144.162ZM114.564,141.943L114.538,182.658L106.538,182.653L106.572,129.511L114.605,129.511L123.645,143.223L132.685,129.511L132.719,129.511L132.719,129.506L140.719,129.511L140.685,182.653L132.685,182.648L132.711,141.967L123.652,156.057L123.652,156.079L123.645,156.068L123.638,156.079L123.638,156.057L114.564,141.943ZM178.782,151.327L171.369,156.077L152.78,144.157L152.843,177.512L144.852,182.648L144.753,129.506L178.782,151.327ZM158.633,163.358L165.359,159.026L177.782,178.316L171.057,182.648L158.633,163.358Z" style="fill:rgb(38,38,38);"/>
            </g>
        </g>
    </g>
</svg>
