<?xml version="1.0" encoding="UTF-8" standalone="no"?>
<!DOCTYPE svg PUBLIC "-//W3C//DTD SVG 1.1//EN" "http://www.w3.org/Graphics/SVG/1.1/DTD/svg11.dtd">
<svg width="100%" height="100%" viewBox="0 0 100 100" version="1.1" xmlns="http://www.w3.org/2000/svg" xmlns:xlink="http://www.w3.org/1999/xlink" xml:space="preserve" xmlns:serif="http://www.serif.com/" style="fill-rule:evenodd;clip-rule:evenodd;stroke-linejoin:round;stroke-miterlimit:2;">
    <g transform="matrix(1,0,0,1,-230.865,0)">
        <g id="Frame3" transform="matrix(0.976657,0,0,0.996043,230.865,0)">
            <rect x="0" y="0" width="102.39" height="100.397" style="fill:none;"/>
            <g transform="matrix(1.0239,0,0,1.00397,-335.447,-246.284)">
                <path d="M349.164,295.594C348.279,294.706 347.666,293.54 347.666,292.036C347.666,288.771 350.142,286.319 354.225,286.319C356.086,286.319 357.562,286.903 358.754,287.637L358.754,283.687C358.754,282.582 359.649,281.687 360.754,281.687L364.279,281.687C365.384,281.687 366.279,282.582 366.279,283.687L366.279,286.495C366.749,286.383 367.251,286.319 367.786,286.319C369.412,286.319 370.644,286.833 371.562,287.681C371.902,287.996 372.202,288.367 372.458,288.792L372.458,288.607C372.458,288.117 372.634,287.668 372.927,287.32C372.444,286.685 372.17,285.891 372.17,285.005C372.17,282.811 373.819,281.183 376.208,281.183C378.647,281.183 380.247,282.811 380.247,285.005C380.247,285.888 379.982,286.679 379.507,287.312C379.516,287.322 379.524,287.332 379.532,287.342C379.899,286.893 380.457,286.607 381.082,286.607L383.959,286.607C384.415,286.607 384.84,286.76 385.179,287.022C386.045,286.588 387.013,286.319 388.114,286.319C389.691,286.319 390.898,286.803 391.806,287.606C391.831,287.564 391.857,287.523 391.884,287.482C392.256,286.934 392.876,286.607 393.538,286.607L397.089,286.607C397.95,286.607 398.714,287.158 398.986,287.974L399.633,289.916L400.155,288.064C400.398,287.202 401.184,286.607 402.08,286.607L405.463,286.607C406.109,286.607 406.715,286.919 407.091,287.444C407.466,287.97 407.564,288.645 407.355,289.256L403.228,301.28C403.221,301.298 403.215,301.316 403.208,301.335C402.326,303.679 401.3,305.267 399.865,306.187C398.865,306.828 397.659,307.164 396.129,307.164C395.163,307.164 394.519,307.033 393.875,306.839C392.864,306.536 392.263,305.499 392.502,304.471L393.06,302.066C392.717,302.342 392.281,302.508 391.807,302.508L388.282,302.508C387.458,302.508 386.751,302.01 386.444,301.299C386.138,302.01 385.431,302.508 384.607,302.508L381.082,302.508C380.457,302.508 379.899,302.221 379.532,301.772C379.166,302.221 378.608,302.508 377.983,302.508L374.458,302.508C373.866,302.508 373.335,302.251 372.968,301.842C372.602,302.251 372.071,302.508 371.479,302.508L367.954,302.508C367.13,302.508 366.423,302.01 366.116,301.299C365.81,302.01 365.103,302.508 364.279,302.508L360.754,302.508C359.833,302.508 359.058,301.886 358.825,301.039C357.681,302.114 355.953,302.796 353.624,302.796C351.631,302.796 349.331,301.944 347.798,300.688C346.983,300.02 346.826,298.833 347.441,297.976L349.024,295.768C349.068,295.707 349.115,295.649 349.164,295.594Z" style="fill:rgb(38,38,38);"/>
            </g>
        </g>
    </g>
</svg>
