<?xml version="1.0" encoding="UTF-8" standalone="no"?>
<!DOCTYPE svg PUBLIC "-//W3C//DTD SVG 1.1//EN" "http://www.w3.org/Graphics/SVG/1.1/DTD/svg11.dtd">
<svg width="100%" height="100%" viewBox="0 0 100 100" version="1.1" xmlns="http://www.w3.org/2000/svg" xmlns:xlink="http://www.w3.org/1999/xlink" xml:space="preserve" xmlns:serif="http://www.serif.com/" style="fill-rule:evenodd;clip-rule:evenodd;stroke-linejoin:round;stroke-miterlimit:2;">
    <g transform="matrix(1,0,0,1,-699.463,0)">
        <g id="Frame7" transform="matrix(0.976657,0,0,0.996043,699.463,0)">
            <rect x="0" y="0" width="102.39" height="100.397" style="fill:none;"/>
            <g transform="matrix(1.3668,0,0,0.938561,-652.086,-3.76329)">
                <path d="M486.781,24.263C489.411,24.263 492.317,30.912 492.317,34.188C492.317,37.464 486.733,39.219 484.103,39.219C481.472,39.219 479.337,36.559 479.337,33.283C479.337,30.007 484.151,24.263 486.781,24.263Z" style="fill:rgb(38,38,38);"/>
            </g>
            <g transform="matrix(1.30076,0,0,0.986202,-596.02,-13.5035)">
                <path d="M484.103,27.347C486.733,27.347 491.107,26.732 491.107,30.008C491.107,33.284 486.733,39.219 484.103,39.219C481.472,39.219 479.337,36.559 479.337,33.283C479.337,30.007 481.472,27.347 484.103,27.347Z" style="fill:rgb(38,38,38);"/>
            </g>
            <g transform="matrix(1.33512,0,0,1.01226,-585.196,-17.1501)">
                <path d="M483.609,26.982C486.092,26.033 488.277,24.713 489.257,27.839C490.531,31.902 487.71,39.823 484.103,39.219C481.508,38.784 479.337,36.559 479.337,33.283C479.337,30.007 481.086,27.946 483.609,26.982Z" style="fill:rgb(38,38,38);"/>
            </g>
            <g transform="matrix(1.11154,0,0,0.842743,-444.658,16.4587)">
                <path d="M483.112,26.91C485.742,26.91 490.993,25.195 490.993,28.471C490.993,31.747 488.567,41.639 485.937,41.639C483.307,41.639 479.337,36.559 479.337,33.283C479.337,30.007 480.481,26.91 483.112,26.91Z" style="fill:rgb(38,38,38);"/>
            </g>
            <g transform="matrix(1.30617,0,0,0.990304,-546.798,-8.17339)">
                <path d="M479.337,24.996C481.967,24.996 493.221,23.629 493.221,26.905C493.221,30.181 485.302,37.108 482.671,37.108C480.041,37.108 477.478,35.317 477.478,32.041C477.478,28.765 476.706,24.996 479.337,24.996Z" style="fill:rgb(38,38,38);"/>
            </g>
            <g transform="matrix(0.627988,0.918929,-0.724641,0.476125,-188.699,-385.943)">
                <path d="M484.103,27.347C486.733,27.347 488.868,30.007 488.868,33.283C488.868,36.559 486.733,39.219 484.103,39.219C481.472,39.219 472.255,38.837 472.255,35.561C472.255,32.285 481.472,27.347 484.103,27.347Z" style="fill:rgb(38,38,38);"/>
            </g>
            <g transform="matrix(1.16036,0.434873,-0.342928,0.879752,-488.407,-163.599)">
                <path d="M481.127,25.161C483.758,25.161 494.336,32.57 494.336,35.846C494.336,39.121 486.733,39.219 484.103,39.219C481.472,39.219 479.337,36.559 479.337,33.283C479.337,30.007 478.497,25.161 481.127,25.161Z" style="fill:rgb(38,38,38);"/>
            </g>
            <g transform="matrix(1.00066,0,0,0.758674,-452.336,55.4654)">
                <path d="M483.919,28.385C486.549,28.385 490.539,32.881 490.539,36.157C490.539,39.433 488.201,38.792 485.57,38.792C482.94,38.792 478.236,39.311 478.236,36.035C478.236,32.759 481.289,28.385 483.919,28.385Z" style="fill:rgb(38,38,38);"/>
            </g>
            <g transform="matrix(0.67414,0.685334,-0.540435,0.511116,-298.249,-283.001)">
                <path d="M482.194,26.588C484.825,26.588 487.933,30.239 488.868,33.283C490.079,37.223 489.351,41.563 486.721,41.563C484.091,41.563 479.337,36.559 479.337,33.283C479.337,30.007 479.564,26.588 482.194,26.588Z" style="fill:rgb(38,38,38);"/>
            </g>
        </g>
    </g>
</svg>
