<?xml version="1.0" encoding="UTF-8" standalone="no"?>
<!DOCTYPE svg PUBLIC "-//W3C//DTD SVG 1.1//EN" "http://www.w3.org/Graphics/SVG/1.1/DTD/svg11.dtd">
<svg width="100%" height="100%" viewBox="0 0 100 100" version="1.1" xmlns="http://www.w3.org/2000/svg" xmlns:xlink="http://www.w3.org/1999/xlink" xml:space="preserve" xmlns:serif="http://www.serif.com/" style="fill-rule:evenodd;clip-rule:evenodd;stroke-linejoin:round;stroke-miterlimit:2;">
    <g id="Frame1" transform="matrix(0.976657,0,0,0.996043,0,0)">
        <rect x="0" y="0" width="102.39" height="100.397" style="fill:none;"/>
        <g transform="matrix(1.0239,0,0,1.00397,-335.447,-246.284)">
            <path d="M349.066,299.141L350.649,296.934C351.728,297.75 352.711,298.183 353.72,298.183C354.777,298.183 355.234,297.798 355.234,297.174C355.234,296.382 354.032,296.022 352.807,295.542C351.368,294.989 349.666,294.005 349.666,292.036C349.666,289.829 351.464,288.319 354.225,288.319C356.049,288.319 357.392,289.062 358.423,289.829L356.84,291.94C355.977,291.316 355.162,290.932 354.321,290.932C353.408,290.932 352.975,291.268 352.975,291.868C352.975,292.636 354.08,292.924 355.306,293.381C356.816,293.933 358.519,294.773 358.519,296.958C358.519,299.118 356.816,300.796 353.624,300.796C352.064,300.796 350.265,300.124 349.066,299.141ZM360.754,300.508L360.754,283.687L364.279,283.687L364.279,287.815L364.111,289.949C365,289.158 366.176,288.319 367.786,288.319C370.376,288.319 371.479,290.141 371.479,293.116L371.479,300.508L367.954,300.508L367.954,293.572C367.954,291.844 367.498,291.316 366.489,291.316C365.6,291.316 365.048,291.724 364.279,292.468L364.279,300.508L360.754,300.508ZM376.208,286.852C375.033,286.852 374.17,286.084 374.17,285.005C374.17,283.926 375.033,283.183 376.208,283.183C377.408,283.183 378.247,283.926 378.247,285.005C378.247,286.084 377.408,286.852 376.208,286.852ZM374.458,300.508L374.458,288.607L377.983,288.607L377.983,300.508L374.458,300.508ZM381.082,300.508L381.082,288.607L383.959,288.607L384.199,290.117L384.295,290.117C385.304,289.158 386.504,288.319 388.114,288.319C390.704,288.319 391.807,290.141 391.807,293.116L391.807,300.508L388.282,300.508L388.282,293.572C388.282,291.844 387.826,291.316 386.817,291.316C385.928,291.316 385.376,291.724 384.607,292.468L384.607,300.508L381.082,300.508ZM395.074,302.239C395.29,302.287 395.601,302.383 395.865,302.383C397.041,302.383 397.641,301.759 397.953,300.823L398.121,300.199L393.538,288.607L397.089,288.607L398.793,293.719C399.129,294.799 399.416,295.927 399.728,297.103L399.824,297.103C400.088,295.975 400.352,294.847 400.64,293.719L402.08,288.607L405.463,288.607L401.336,300.631C400.208,303.629 398.937,305.164 396.129,305.164C395.409,305.164 394.93,305.068 394.45,304.924L395.074,302.239Z" style="fill:rgb(38,38,38);"/>
        </g>
    </g>
</svg>
