<?xml version="1.0" encoding="UTF-8" standalone="no"?>
<!DOCTYPE svg PUBLIC "-//W3C//DTD SVG 1.1//EN" "http://www.w3.org/Graphics/SVG/1.1/DTD/svg11.dtd">
<svg width="100%" height="100%" viewBox="0 0 100 100" version="1.1" xmlns="http://www.w3.org/2000/svg" xmlns:xlink="http://www.w3.org/1999/xlink" xml:space="preserve" xmlns:serif="http://www.serif.com/" style="fill-rule:evenodd;clip-rule:evenodd;stroke-linejoin:round;stroke-miterlimit:2;">
    <g transform="matrix(1,0,0,1,-115.214,0)">
        <g id="Frame2" transform="matrix(0.976657,0,0,0.996043,115.214,0)">
            <rect x="0" y="0" width="102.39" height="100.397" style="fill:none;"/>
            <g transform="matrix(1.0239,0,0,1.00397,-335.447,-246.284)">
                <path d="M354.052,297.149C354.034,297.137 354.016,297.127 353.999,297.117C353.578,296.886 353.013,296.696 352.445,296.474C350.663,295.789 348.666,294.474 348.666,292.036C348.666,289.3 350.803,287.319 354.225,287.319C356.306,287.319 357.844,288.151 359.02,289.027C359.233,289.185 359.375,289.422 359.413,289.685C359.451,289.948 359.383,290.216 359.223,290.429L357.641,292.54C357.44,292.807 357.132,292.946 356.821,292.94C358.268,293.667 359.519,294.822 359.519,296.958C359.519,299.606 357.538,301.796 353.624,301.796C351.847,301.796 349.798,301.034 348.432,299.915C348.024,299.581 347.946,298.987 348.253,298.559L349.836,296.351C349.994,296.132 350.233,295.986 350.499,295.945C350.766,295.905 351.037,295.974 351.252,296.137C352.125,296.797 352.904,297.183 353.72,297.183C353.83,297.183 353.95,297.167 354.052,297.149ZM356.009,292.578C355.434,292.189 354.891,291.932 354.321,291.932C354.315,291.932 354.31,291.932 354.304,291.932C354.322,291.941 354.34,291.949 354.357,291.956C354.731,292.12 355.184,292.268 355.649,292.441C355.769,292.485 355.889,292.531 356.009,292.578ZM359.754,300.508L359.754,283.687C359.754,283.134 360.202,282.687 360.754,282.687L364.279,282.687C364.831,282.687 365.279,283.134 365.279,283.687L365.279,287.815C365.279,287.841 365.278,287.867 365.276,287.893C365.276,287.893 365.273,287.923 365.274,287.923C365.997,287.562 366.828,287.319 367.786,287.319C369.117,287.319 370.132,287.722 370.883,288.416C371.929,289.382 372.479,290.989 372.479,293.116L372.479,300.508C372.479,301.06 372.031,301.508 371.479,301.508L367.954,301.508C367.402,301.508 366.954,301.06 366.954,300.508L366.954,293.572C366.954,293.16 366.929,292.833 366.861,292.578C366.836,292.482 366.818,292.402 366.767,292.352C366.704,292.288 366.603,292.316 366.489,292.316C365.991,292.316 365.665,292.539 365.279,292.895L365.279,300.508C365.279,301.06 364.831,301.508 364.279,301.508L360.754,301.508C360.202,301.508 359.754,301.06 359.754,300.508ZM377.525,287.607L377.983,287.607C378.535,287.607 378.983,288.054 378.983,288.607L378.983,300.508C378.983,301.06 378.535,301.508 377.983,301.508L374.458,301.508C373.906,301.508 373.458,301.06 373.458,300.508L373.458,288.607C373.458,288.054 373.906,287.607 374.458,287.607L374.907,287.607C373.846,287.173 373.17,286.202 373.17,285.005C373.17,283.368 374.426,282.183 376.208,282.183C378.027,282.183 379.247,283.368 379.247,285.005C379.247,286.202 378.59,287.173 377.525,287.607ZM384.92,288.328C385.826,287.727 386.87,287.319 388.114,287.319C389.445,287.319 390.46,287.722 391.211,288.416C392.257,289.382 392.807,290.989 392.807,293.116L392.807,300.508C392.807,301.06 392.359,301.508 391.807,301.508L388.282,301.508C387.73,301.508 387.282,301.06 387.282,300.508L387.282,293.572C387.282,293.16 387.257,292.833 387.189,292.578C387.164,292.482 387.146,292.402 387.095,292.352C387.032,292.288 386.931,292.316 386.817,292.316C386.319,292.316 385.993,292.539 385.607,292.895L385.607,300.508C385.607,301.06 385.159,301.508 384.607,301.508L381.082,301.508C380.53,301.508 380.082,301.06 380.082,300.508L380.082,288.607C380.082,288.054 380.53,287.607 381.082,287.607L383.959,287.607C384.409,287.607 384.798,287.905 384.92,288.328ZM399.714,293.319L401.117,288.336C401.239,287.904 401.632,287.607 402.08,287.607L405.463,287.607C405.786,287.607 406.089,287.763 406.277,288.025C406.464,288.288 406.514,288.626 406.409,288.931L402.282,300.955C402.279,300.964 402.275,300.974 402.272,300.983C400.959,304.473 399.397,306.164 396.129,306.164C395.286,306.164 394.724,306.05 394.162,305.881C393.657,305.73 393.356,305.211 393.476,304.697L394.1,302.012C394.224,301.478 394.755,301.143 395.291,301.262C395.448,301.297 395.673,301.383 395.865,301.383C396.503,301.383 396.822,301.034 396.996,300.532L397.069,300.258L392.608,288.974C392.486,288.666 392.525,288.318 392.711,288.044C392.897,287.77 393.207,287.607 393.538,287.607L397.089,287.607C397.52,287.607 397.902,287.882 398.038,288.29L399.714,293.319Z" style="fill:rgb(38,38,38);"/>
            </g>
        </g>
    </g>
</svg>
