<svg xmlns="http://www.w3.org/2000/svg" xml:space="preserve"
    style="fill-rule:evenodd;clip-rule:evenodd;stroke-linejoin:round;stroke-miterlimit:2" viewBox="0 0 775 152">
    <g transform="matrix(.90888 0 0 .66035 2285.53 -254.784)">
        <path
            d="M976.747 468.409c-3.817 0-6.992-.632-9.523-1.898-2.531-1.265-4.526-3.099-5.984-5.502-1.459-2.402-2.499-5.297-3.121-8.686-.622-3.389-.933-7.207-.933-11.454l13.642-1.287c0 2.059.075 4.043.225 5.952.15 1.909.429 3.625.836 5.148.408 1.523 1.008 2.734 1.802 3.635.794.901 1.812 1.352 3.056 1.352 2.06 0 3.518-.955 4.376-2.864.858-1.909 1.287-4.215 1.287-6.917 0-2.703-.708-5.512-2.124-8.429a50.005 50.005 0 0 0-5.083-8.301c-3.346-4.462-6.274-8.601-8.783-12.419-2.51-3.818-4.462-7.572-5.856-11.261-1.394-3.689-2.091-7.55-2.091-11.582 0-3.175.407-6.102 1.223-8.784.815-2.681 2.005-5.019 3.571-7.013a16.603 16.603 0 0 1 5.694-4.665c2.231-1.116 4.784-1.673 7.658-1.673 3.56 0 6.574.6 9.04 1.801 2.467 1.201 4.462 2.917 5.985 5.148 1.523 2.231 2.638 4.88 3.346 7.947.708 3.067 1.061 6.467 1.061 10.199l-13.641 1.287c0-1.588-.075-3.185-.225-4.794-.15-1.609-.419-3.078-.805-4.408-.386-1.33-.943-2.402-1.673-3.217-.729-.815-1.673-1.223-2.831-1.223-1.802 0-3.046.762-3.732 2.285-.686 1.522-1.03 3.678-1.03 6.466 0 3.604.966 7.078 2.896 10.425 1.93 3.346 4.526 7.249 7.786 11.711 3.904 5.276 7.089 10.123 9.555 14.542 2.467 4.418 3.7 9.309 3.7 14.671 0 3.389-.364 6.531-1.093 9.427-.73 2.895-1.877 5.416-3.443 7.561-1.566 2.144-3.561 3.817-5.984 5.019-2.424 1.201-5.352 1.801-8.784 1.801ZM1003.52 467.38v-94.59h13.9v39.123h10.8V372.79h13.9v94.59h-13.9v-41.182h-10.8v41.182h-13.9ZM1052.42 372.79h13.899v94.59h-13.899zM1076.61 467.38v-94.59h13l12.87 49.29 1.16 4.375h.77V372.79h12.74v94.59h-11.71l-14.16-49.29-1.15-4.375h-.78v53.665h-12.74ZM1138.39 467.38v-40.281l-14.16-54.309h13.64l6.82 30.243.45 4.118h.39l.45-4.118 6.82-30.243h13.64l-14.15 54.309v40.281h-13.9ZM1209.42 467.38v-80.305h-13.13V372.79h40.15v14.285h-13.12v80.305h-13.9ZM1242.88 467.38v-94.59h13.9v39.123h10.81V372.79h13.89v94.59h-13.89v-41.182h-10.81v41.182h-13.9ZM1291.78 372.79h13.899v94.59h-13.899zM1315.97 467.38v-94.59h13l12.87 49.29 1.16 4.375h.77V372.79h12.74v94.59h-11.71l-14.16-49.29-1.15-4.375h-.78v53.665h-12.74ZM1382.51 468.409c-3.82 0-6.93-.901-9.33-2.702-2.4-1.802-4.17-4.247-5.31-7.336-1.14-3.088-1.71-6.563-1.71-10.424v-55.724c0-3.818.75-7.271 2.26-10.36 1.5-3.089 3.64-5.545 6.43-7.368 2.79-1.823 6.07-2.734 9.85-2.734 2.87 0 5.45.525 7.75 1.576 2.3 1.051 4.25 2.52 5.86 4.408 1.6 1.887 2.83 4.064 3.66 6.531.84 2.467 1.26 5.116 1.26 7.947v14.542h-13.9v-14.542c0-1.888-.34-3.518-1.03-4.891-.69-1.372-1.89-2.059-3.6-2.059-1.68 0-2.87.719-3.58 2.156-.7 1.437-1.06 3.035-1.06 4.794v56.882c0 1.845.37 3.464 1.1 4.858.73 1.395 1.91 2.092 3.54 2.092 1.71 0 2.91-.697 3.6-2.092.69-1.394 1.03-3.013 1.03-4.858v-15.829h-5.53v-12.998h19.43v47.102h-8.24l-1.67-5.148c-1.2 1.93-2.74 3.443-4.6 4.536-1.87 1.094-3.94 1.641-6.21 1.641ZM1430.25 468.409c-3.81 0-6.99-.632-9.52-1.898-2.53-1.265-4.53-3.099-5.98-5.502-1.46-2.402-2.5-5.297-3.13-8.686-.62-3.389-.93-7.207-.93-11.454l13.64-1.287c0 2.059.08 4.043.23 5.952.15 1.909.43 3.625.83 5.148.41 1.523 1.01 2.734 1.81 3.635.79.901 1.81 1.352 3.05 1.352 2.06 0 3.52-.955 4.38-2.864.86-1.909 1.29-4.215 1.29-6.917 0-2.703-.71-5.512-2.13-8.429a49.855 49.855 0 0 0-5.08-8.301c-3.35-4.462-6.28-8.601-8.78-12.419-2.51-3.818-4.47-7.572-5.86-11.261-1.39-3.689-2.09-7.55-2.09-11.582 0-3.175.41-6.102 1.22-8.784.82-2.681 2.01-5.019 3.57-7.013a16.66 16.66 0 0 1 5.7-4.665c2.23-1.116 4.78-1.673 7.65-1.673 3.56 0 6.58.6 9.05 1.801 2.46 1.201 4.46 2.917 5.98 5.148 1.52 2.231 2.64 4.88 3.35 7.947.7 3.067 1.06 6.467 1.06 10.199l-13.64 1.287c0-1.588-.08-3.185-.23-4.794-.15-1.609-.42-3.078-.8-4.408-.39-1.33-.95-2.402-1.68-3.217s-1.67-1.223-2.83-1.223c-1.8 0-3.04.762-3.73 2.285-.69 1.522-1.03 3.678-1.03 6.466 0 3.604.97 7.078 2.9 10.425 1.93 3.346 4.52 7.249 7.78 11.711 3.91 5.276 7.09 10.123 9.56 14.542 2.46 4.418 3.7 9.309 3.7 14.671 0 3.389-.37 6.531-1.1 9.427-.73 2.895-1.87 5.416-3.44 7.561-1.57 2.144-3.56 3.817-5.98 5.019-2.43 1.201-5.36 1.801-8.79 1.801Z"
            style="fill-rule:nonzero" transform="matrix(1.73065 0 0 2.38198 -4171.23 -499.694)" />
    </g>
</svg>